<?xml version="1.0" standalone="no"?><!DOCTYPE svg PUBLIC "-//W3C//DTD SVG 1.1//EN" "http://www.w3.org/Graphics/SVG/1.1/DTD/svg11.dtd"><svg t="1635684353950" class="icon" viewBox="0 0 1028 1024" version="1.1" xmlns="http://www.w3.org/2000/svg" p-id="8329" xmlns:xlink="http://www.w3.org/1999/xlink" width="200.78125" height="200"><defs><style type="text/css"></style></defs><path d="M32.57709 364.8c6.4 0 12.8 0 19.2-6.4l70.4-44.8c0 6.4 6.4 6.4 12.8 6.4h755.2c6.4 0 12.8 0 19.2-6.4l70.4 44.8c6.4 6.4 12.8 6.4 19.2 6.4 12.8 0 19.2-6.4 25.6-12.8 6.4-12.8 6.4-32-12.8-44.8l-480-300.8c-12.8-6.4-25.6-6.4-32 0l-486.4 294.4c-12.8 12.8-19.2 32-6.4 44.8 6.4 12.8 12.8 19.2 25.6 19.2z m179.2-108.8l300.8-185.6 300.8 185.6h-601.6z m-83.2 576h192V384h-192v448z m64-390.4h64v339.2h-64V441.6z m448 390.4V384h-256v448h256z m-192-390.4h128v339.2h-128V441.6z m256 390.4h192V384h-192v448z m64-390.4h64v339.2h-64V441.6zM0.57709 896h1024v128H0.57709z" p-id="8330"></path><path d="M512.57709 64l-320 192 640 64V192z" p-id="8331"></path></svg>